<svg data-v-423bf9ae="" xmlns="http://www.w3.org/2000/svg" viewBox="0 0 393 125" class="iconLeft"><!----><!----><!----><g data-v-423bf9ae="" id="4e34f082-4e4c-467b-bfd1-e62a393bbc5f" fill="#000000" transform="matrix(5.489478346271195,0,0,5.489478346271195,162.43624693520536,24.736951033830096)"><path d="M11.93 1.40L11.93 1.40Q12.11 1.40 12.22 1.52L12.22 1.52L12.22 1.52Q12.33 1.64 12.33 1.82L12.33 1.82L12.33 11.91L12.33 11.91Q12.33 12.10 12.22 12.21L12.22 12.21L12.22 12.21Q12.11 12.33 11.93 12.33L11.93 12.33L11.93 12.33Q11.75 12.33 11.62 12.21L11.62 12.21L11.62 12.21Q11.49 12.10 11.49 11.91L11.49 11.91L11.49 3.33L7.24 12.00L7.24 12.00Q7.14 12.19 6.87 12.19L6.87 12.19L6.87 12.19Q6.62 12.19 6.48 11.93L6.48 11.93L2.24 3.46L2.24 11.91L2.24 11.91Q2.24 12.10 2.12 12.21L2.12 12.21L2.12 12.21Q2.00 12.33 1.82 12.33L1.82 12.33L1.82 12.33Q1.64 12.33 1.52 12.21L1.52 12.21L1.52 12.21Q1.40 12.10 1.40 11.91L1.40 11.91L1.40 1.82L1.40 1.82Q1.40 1.64 1.52 1.52L1.52 1.52L1.52 1.52Q1.64 1.40 1.82 1.40L1.82 1.40L1.82 1.40Q2.10 1.40 2.20 1.61L2.20 1.61L6.90 10.91L11.55 1.61L11.55 1.61Q11.68 1.40 11.93 1.40L11.93 1.40ZM22.29 11.49L22.29 11.49Q22.46 11.49 22.58 11.62L22.58 11.62L22.58 11.62Q22.71 11.75 22.71 11.91L22.71 11.91L22.71 11.91Q22.71 12.10 22.58 12.21L22.58 12.21L22.58 12.21Q22.46 12.33 22.29 12.33L22.29 12.33L15.55 12.33L15.55 12.33Q15.37 12.33 15.25 12.21L15.25 12.21L15.25 12.21Q15.13 12.10 15.13 11.91L15.13 11.91L15.13 1.82L15.13 1.82Q15.13 1.64 15.25 1.52L15.25 1.52L15.25 1.52Q15.37 1.40 15.55 1.40L15.55 1.40L22.29 1.40L22.29 1.40Q22.46 1.40 22.58 1.52L22.58 1.52L22.58 1.52Q22.71 1.64 22.71 1.82L22.71 1.82L22.71 1.82Q22.71 1.99 22.58 2.11L22.58 2.11L22.58 2.11Q22.46 2.24 22.29 2.24L22.29 2.24L15.97 2.24L15.97 6.44L20.61 6.44L20.61 6.44Q20.79 6.44 20.91 6.56L20.91 6.56L20.91 6.56Q21.03 6.68 21.03 6.86L21.03 6.86L21.03 6.86Q21.03 7.04 20.91 7.17L20.91 7.17L20.91 7.17Q20.79 7.29 20.61 7.29L20.61 7.29L15.97 7.29L15.97 11.49L22.29 11.49ZM31.39 11.69L31.39 11.69Q31.50 11.89 31.50 12.01L31.50 12.01L31.50 12.01Q31.50 12.17 31.38 12.25L31.38 12.25L31.38 12.25Q31.26 12.33 31.04 12.33L31.04 12.33L31.04 12.33Q30.90 12.33 30.81 12.28L30.81 12.28L30.81 12.28Q30.73 12.22 30.66 12.11L30.66 12.11L28.08 7.99L27.83 7.99L25.58 7.99L25.58 11.91L25.58 11.91Q25.58 12.10 25.47 12.21L25.47 12.21L25.47 12.21Q25.35 12.33 25.16 12.33L25.16 12.33L25.16 12.33Q24.98 12.33 24.86 12.21L24.86 12.21L24.86 12.21Q24.74 12.10 24.74 11.91L24.74 11.91L24.74 1.82L24.74 1.82Q24.74 1.62 24.86 1.51L24.86 1.51L24.86 1.51Q24.98 1.40 25.16 1.40L25.16 1.40L27.83 1.40L27.83 1.40Q28.84 1.40 29.64 1.82L29.64 1.82L29.64 1.82Q30.44 2.24 30.88 3.00L30.88 3.00L30.88 3.00Q31.33 3.75 31.33 4.72L31.33 4.72L31.33 4.72Q31.33 5.87 30.70 6.70L30.70 6.70L30.70 6.70Q30.06 7.53 28.98 7.84L28.98 7.84L31.39 11.69ZM25.58 7.15L27.83 7.15L27.83 7.15Q28.60 7.15 29.20 6.85L29.20 6.85L29.20 6.85Q29.81 6.54 30.15 5.98L30.15 5.98L30.15 5.98Q30.49 5.42 30.49 4.72L30.49 4.72L30.49 4.72Q30.49 4.00 30.15 3.44L30.15 3.44L30.15 3.44Q29.81 2.87 29.20 2.55L29.20 2.55L29.20 2.55Q28.60 2.24 27.83 2.24L27.83 2.24L25.58 2.24L25.58 7.15ZM41.10 1.82L41.10 1.82Q41.10 1.64 41.22 1.52L41.22 1.52L41.22 1.52Q41.34 1.40 41.52 1.40L41.52 1.40L41.52 1.40Q41.69 1.40 41.82 1.52L41.82 1.52L41.82 1.52Q41.94 1.64 41.94 1.82L41.94 1.82L41.94 11.91L41.94 11.91Q41.94 12.10 41.82 12.21L41.82 12.21L41.82 12.21Q41.69 12.33 41.52 12.33L41.52 12.33L41.52 12.33Q41.33 12.33 41.22 12.21L41.22 12.21L34.09 2.94L34.09 11.91L34.09 11.91Q34.09 12.10 33.97 12.21L33.97 12.21L33.97 12.21Q33.85 12.33 33.67 12.33L33.67 12.33L33.67 12.33Q33.49 12.33 33.37 12.21L33.37 12.21L33.37 12.21Q33.25 12.10 33.25 11.91L33.25 11.91L33.25 1.82L33.25 1.82Q33.25 1.64 33.37 1.52L33.37 1.52L33.37 1.52Q33.49 1.40 33.67 1.40L33.67 1.40L33.67 1.40Q33.87 1.40 33.99 1.54L33.99 1.54L41.10 10.79L41.10 1.82Z"></path></g><!----><g data-v-423bf9ae="" id="9cf304e9-aa8d-4292-aec1-5dc8d6d4bcb8" transform="matrix(1.1777777777777778,0,0,1.1777777777777778,0.9392478095160612,-12.37777777777778)" stroke="none" fill="#000000"><path d="M3 11a3 3 0 1 0 0 6c1.301 0 2.397-.842 2.813-2h7.688l18.375 63.781v.031c-.017.014-.035.084 0 .063l-.031.063-8.031 19.344c1.449-.772 3.093-1.196 4.844-1.25l6.813-16.438h.031l.031-.125c.272-.588.376-1.085.375-1.563h77.188c1.6 0 3.294-1.306 3.594-2.906l10.719-50.094c.3-1.6-.706-2.906-2.406-2.906H19.94l-2.813-9.781v-.063h-.031C16.722 11.811 15.467 11 14.19 11H3.002zm26 88c-4.971 0-9 4.029-9 9s4.029 9 9 9 9-4.029 9-9-4.029-9-9-9zm74 0c-4.971 0-9 4.029-9 9s4.029 9 9 9 9-4.029 9-9-4.029-9-9-9zm-65.5 2a10.89 10.89 0 0 1 2.063 4h52.875c.418-1.487 1.109-2.843 2.063-4h-57z"></path></g><!----></svg>